<svg xmlns="http://www.w3.org/2000/svg" version="1.1" xmlns:xlink="http://www.w3.org/1999/xlink" xmlns:svgjs="http://svgjs.com/svgjs" width="1024" height="1024"><svg width="1024" height="1024" viewBox="0 0 1024 1024" fill="none" xmlns="http://www.w3.org/2000/svg">
<path d="M353.029 822.81C332.863 806.591 317.219 786.886 304.411 764.86C289.362 738.98 280.133 711.022 275.236 681.563C272.008 662.144 271.722 642.576 272.165 622.965C272.572 604.898 275.867 587.225 279.555 569.627C287.856 530.017 302.392 492.674 321.041 456.863C334.289 431.423 348.933 406.787 365.197 383.182C387.249 351.178 409.723 319.463 432.167 287.73C448.457 264.699 462.887 240.534 476.845 216.055C493.06 187.618 508.936 158.964 528.398 132.527C529.378 131.196 530.394 129.89 531.828 128C533.287 130.16 534.523 131.855 535.621 133.634C550.9 158.376 561.951 185.013 570.669 212.648C578.122 236.272 584.877 260.12 592.63 283.642C598.161 300.422 604.721 316.867 611.016 333.388C631.418 386.932 658.002 437.562 683.948 488.513C699.948 519.931 715.539 551.581 730.355 583.571C740.178 604.781 746.384 627.357 749.222 650.634C750.773 663.349 752.173 676.215 751.98 688.988C751.332 731.882 739.305 771.355 714.474 806.651C709.905 813.146 704.356 818.712 697.558 822.684C686.583 829.095 675.304 834.985 664.153 841.095C663.84 840.853 663.526 840.611 663.213 840.369C663.841 834.964 664.337 829.54 665.125 824.158C667.343 809.006 669.679 793.87 671.974 778.729C673.754 766.986 675.716 755.266 677.27 743.493C678.429 734.715 679.249 725.882 679.891 717.049C680.742 705.34 682.142 693.577 681.725 681.894C681.183 666.692 680.096 651.366 677.439 636.414C672.833 610.495 663.872 585.77 651.671 562.481C637.663 535.74 623.259 509.164 607.883 483.194C586.776 447.546 568.958 410.478 554.728 371.584C545.546 346.489 535.562 321.687 521.973 298.54C519.975 295.136 517.836 291.815 515.426 287.911C511.762 293.034 508.292 297.616 505.104 302.386C476.807 344.717 448.403 386.977 420.349 429.469C398.218 462.992 378.713 497.98 363.841 535.393C357.212 552.068 351.882 569.16 347.942 586.692C344.566 601.708 342.272 616.863 342.505 632.25C342.816 652.816 346.674 672.826 352.919 692.425C361.951 720.769 375.4 747.149 388.532 773.688C399.902 796.665 411.498 819.55 420.079 843.784C420.579 845.198 420.858 846.689 421.389 848.71C397.439 842.098 373.355 837.83 353.029 822.81Z" fill="white" style="--darkreader-inline-fill: #181a1b;" data-darkreader-inline-fill=""></path>
<path d="M419.7 734.488C419.733 706.454 425.141 679.424 434.937 653.224C444.905 626.561 459.201 602.195 474.712 578.48C487.951 558.239 501.665 538.289 514.305 517.68C523.92 502.003 532.174 485.49 541.044 469.355C544.987 462.183 548.943 455.017 552.924 447.866C553.482 446.864 554.22 445.961 555.226 444.503C559.644 450.612 563.805 456.178 567.771 461.88C590.689 494.832 611.596 529.006 629.062 565.168C636.641 580.86 644.108 596.735 649.848 613.149C654.53 626.539 657.026 640.767 659.671 654.779C663.675 675.989 664.311 697.529 663.145 719.009C661.62 747.109 655.971 774.38 644.862 800.441C634.235 825.371 618.2 846.351 598.797 864.899C587.174 876.009 574.479 885.64 559.233 891.542C543.476 897.64 528.115 897.566 512.486 890.8C475.33 874.715 449.876 847.398 434.012 810.562C427.858 796.272 423.867 781.334 421.334 766.083C419.925 757.598 420.16 748.839 419.868 739.676C419.954 737.594 419.827 736.041 419.7 734.488Z" fill="white" style="--darkreader-inline-fill: #181a1b;" data-darkreader-inline-fill=""></path>
<path d="M462.461 562.578C453.518 577.858 444.462 592.779 435.993 608.026C424.481 628.753 417.912 651.231 413.942 674.494C411.809 686.992 409.91 699.534 408.152 712.09C406.971 720.525 406.267 729.026 405.259 737.486C404.882 740.648 404.247 743.78 403.642 747.458C388.218 724.772 371.74 703.278 365.879 676.128C362.206 659.114 361.2 641.971 362.362 624.583C364.378 594.411 373.43 566.152 384.998 538.555C402.466 496.884 424.713 457.822 450.17 420.56C466 397.389 483.29 375.339 501.796 354.241C502.502 353.436 502.973 352.425 503.452 351.672C504.577 352.284 504.991 352.371 505.163 352.623C513.222 364.447 521.992 375.86 527.246 389.354C531.993 401.546 532.343 413.863 529.93 426.829C524.248 457.357 510.36 484.304 494.84 510.563C484.497 528.066 473.381 545.112 462.461 562.578Z" fill="white" style="--darkreader-inline-fill: #181a1b;" data-darkreader-inline-fill=""></path>
<path d="M419.524 734.689C419.827 736.041 419.954 737.594 419.889 739.338C419.581 737.982 419.465 736.436 419.524 734.689Z" fill="white" style="--darkreader-inline-fill: #e8e6e3;" data-darkreader-inline-fill=""></path>
</svg><style>@media (prefers-color-scheme: light) { :root { filter: contrast(1) brightness(0.1); } }
@media (prefers-color-scheme: dark) { :root { filter: none; } }
</style></svg>