<svg width="48" height="48" viewBox="0 0 48 48" fill="none" xmlns="http://www.w3.org/2000/svg">
<path d="M16.5482 38.5692C15.6029 37.809 14.8696 36.8853 14.2692 35.8528C13.5638 34.6397 13.1312 33.3291 12.9017 31.9483C12.7504 31.038 12.7369 30.1207 12.7577 29.2015C12.7768 28.3546 12.9313 27.5262 13.1041 26.7013C13.4932 24.8446 14.1746 23.0941 15.0488 21.4154C15.6698 20.223 16.3562 19.0681 17.1186 17.9617C18.1523 16.4615 19.2057 14.9748 20.2578 13.4874C21.0214 12.4078 21.6978 11.275 22.3521 10.1276C23.1121 8.79458 23.8563 7.45142 24.7686 6.21221C24.8146 6.14979 24.8622 6.08861 24.9294 6C24.9978 6.10125 25.0557 6.18071 25.1072 6.26411C25.8234 7.42386 26.3414 8.67249 26.7501 9.96788C27.0995 11.0752 27.4161 12.1931 27.7795 13.2957C28.0388 14.0823 28.3463 14.8532 28.6414 15.6276C29.5977 18.1374 30.8438 20.5107 32.0601 22.899C32.8101 24.3718 33.5409 25.8554 34.2354 27.3549C34.6958 28.3491 34.9867 29.4074 35.1198 30.4985C35.1924 31.0945 35.2581 31.6976 35.2491 32.2963C35.2187 34.307 34.6549 36.1573 33.491 37.8118C33.2768 38.1162 33.0167 38.3771 32.698 38.5633C32.1836 38.8638 31.6548 39.1399 31.1321 39.4263C31.1175 39.415 31.1028 39.4036 31.0881 39.3923C31.1175 39.1389 31.1408 38.8847 31.1777 38.6324C31.2817 37.9221 31.3912 37.2127 31.4987 36.5029C31.5822 35.9524 31.6741 35.4031 31.747 34.8512C31.8013 34.4398 31.8398 34.0257 31.8699 33.6117C31.9098 33.0628 31.9754 32.5114 31.9559 31.9638C31.9304 31.2512 31.8795 30.5328 31.7549 29.8319C31.539 28.6169 31.119 27.458 30.5471 26.3663C29.8904 25.1128 29.2153 23.8671 28.4945 22.6497C27.5051 20.9787 26.6699 19.2411 26.0028 17.418C25.5725 16.2417 25.1045 15.0791 24.4674 13.994C24.3738 13.8345 24.2735 13.6788 24.1606 13.4958C23.9888 13.736 23.8262 13.9507 23.6767 14.1743C22.3503 16.1586 21.0188 18.1396 19.7039 20.1314C18.6664 21.7027 17.7521 23.3428 17.055 25.0965C16.7443 25.8782 16.4945 26.6794 16.3097 27.5012C16.1515 28.205 16.044 28.9154 16.0549 29.6367C16.0695 30.6007 16.2503 31.5387 16.543 32.4574C16.9664 33.786 17.5968 35.0226 18.2124 36.2666C18.7454 37.3437 19.2889 38.4164 19.6912 39.5524C19.7146 39.6186 19.7277 39.6885 19.7526 39.7833C18.6299 39.4734 17.501 39.2733 16.5482 38.5692Z" fill="white"/>
<path d="M19.6734 34.4292C19.6749 33.1151 19.9285 31.8481 20.3876 30.62C20.8549 29.3702 21.525 28.228 22.2521 27.1164C22.8727 26.1675 23.5155 25.2324 24.108 24.2664C24.5587 23.5315 24.9456 22.7575 25.3614 22.0011C25.5462 21.6649 25.7316 21.3291 25.9183 20.9939C25.9444 20.9469 25.979 20.9045 26.0262 20.8362C26.2333 21.1226 26.4283 21.3835 26.6142 21.6508C27.6885 23.1954 28.6685 24.7973 29.4872 26.4923C29.8425 27.2279 30.1925 27.9721 30.4616 28.7415C30.6811 29.3691 30.798 30.0361 30.922 30.6929C31.1097 31.6871 31.1396 32.6968 31.0849 33.7037C31.0134 35.0208 30.7486 36.2992 30.2279 37.5208C29.7297 38.6894 28.9781 39.6728 28.0685 40.5423C27.5237 41.0631 26.9287 41.5145 26.214 41.7911C25.4754 42.077 24.7553 42.0735 24.0227 41.7564C22.2811 41.0024 21.0879 39.7219 20.3443 37.9952C20.0558 37.3254 19.8687 36.6252 19.75 35.9103C19.6839 35.5125 19.695 35.102 19.6813 34.6724C19.6853 34.5748 19.6793 34.502 19.6734 34.4292Z" fill="white"/>
<path d="M21.6779 26.3708C21.2586 27.0871 20.8342 27.7865 20.4372 28.5012C19.8975 29.4728 19.5896 30.5265 19.4035 31.6169C19.3035 32.2027 19.2145 32.7906 19.1321 33.3792C19.0768 33.7746 19.0438 34.1731 18.9965 34.5697C18.9788 34.7179 18.9491 34.8647 18.9207 35.0371C18.1977 33.9737 17.4253 32.9661 17.1506 31.6935C16.9784 30.896 16.9312 30.0924 16.9857 29.2773C17.0802 27.863 17.5045 26.5384 18.0468 25.2448C18.8656 23.2914 19.9084 21.4604 21.1017 19.7137C21.8437 18.6276 22.6542 17.594 23.5217 16.605C23.5548 16.5673 23.5769 16.5199 23.5993 16.4846C23.652 16.5133 23.6714 16.5174 23.6795 16.5292C24.0573 17.0834 24.4684 17.6184 24.7146 18.2509C24.9371 18.8225 24.9536 19.3998 24.8405 20.0076C24.5741 21.4386 23.9231 22.7017 23.1956 23.9327C22.7108 24.7531 22.1897 25.5521 21.6779 26.3708Z" fill="white"/>
<path d="M19.6652 34.4385C19.6794 34.5018 19.6853 34.5746 19.6823 34.6564C19.6678 34.5928 19.6624 34.5204 19.6652 34.4385Z" fill="white"/>
</svg>
